<?xml version="1.0" encoding="UTF-8" standalone="no"?>
<svg
   width="200"
   height="200"
   version="1.1"
   id="svg747"
   sodipodi:docname="qr-code.svg"
   inkscape:version="1.1.2 (0a00cf5339, 2022-02-04)"
   xmlns:inkscape="http://www.inkscape.org/namespaces/inkscape"
   xmlns:sodipodi="http://sodipodi.sourceforge.net/DTD/sodipodi-0.dtd"
   xmlns="http://www.w3.org/2000/svg"
   xmlns:svg="http://www.w3.org/2000/svg">
  <defs
     id="defs751" />
  <sodipodi:namedview
     id="namedview749"
     pagecolor="#ffffff"
     bordercolor="#666666"
     borderopacity="1.0"
     inkscape:pageshadow="2"
     inkscape:pageopacity="0.0"
     inkscape:pagecheckerboard="0"
     showgrid="false"
     inkscape:zoom="3.7653436"
     inkscape:cx="51.920892"
     inkscape:cy="90.429994"
     inkscape:window-width="2560"
     inkscape:window-height="1403"
     inkscape:window-x="0"
     inkscape:window-y="720"
     inkscape:window-maximized="1"
     inkscape:current-layer="svg747" />
  <desc
     id="desc2">Zint Generated Symbol
   </desc>
  <g
     id="barcode"
     fill="#000000"
     transform="scale(2.4391462)">
    <rect
       x="0"
       y="0"
       width="82"
       height="82"
       fill="#ffffff"
       id="rect4" />
    <rect
       x="0"
       y="0"
       width="14"
       height="2"
       id="rect6" />
    <rect
       x="16"
       y="0"
       width="4"
       height="2"
       id="rect8" />
    <rect
       x="26"
       y="0"
       width="4"
       height="2"
       id="rect10" />
    <rect
       x="32"
       y="0"
       width="2"
       height="2"
       id="rect12" />
    <rect
       x="44"
       y="0"
       width="4"
       height="2"
       id="rect14" />
    <rect
       x="50"
       y="0"
       width="6"
       height="2"
       id="rect16" />
    <rect
       x="60"
       y="0"
       width="2"
       height="2"
       id="rect18" />
    <rect
       x="64"
       y="0"
       width="2"
       height="2"
       id="rect20" />
    <rect
       x="68"
       y="0"
       width="14"
       height="2"
       id="rect22" />
    <rect
       x="0"
       y="2"
       width="2"
       height="10"
       id="rect24" />
    <rect
       x="12"
       y="2"
       width="2"
       height="10"
       id="rect26" />
    <rect
       x="16"
       y="2"
       width="2"
       height="2"
       id="rect28" />
    <rect
       x="22"
       y="2"
       width="2"
       height="2"
       id="rect30" />
    <rect
       x="30"
       y="2"
       width="12"
       height="2"
       id="rect32" />
    <rect
       x="48"
       y="2"
       width="10"
       height="2"
       id="rect34" />
    <rect
       x="60"
       y="2"
       width="4"
       height="2"
       id="rect36" />
    <rect
       x="68"
       y="2"
       width="2"
       height="10"
       id="rect38" />
    <rect
       x="80"
       y="2"
       width="2"
       height="10"
       id="rect40" />
    <rect
       x="4"
       y="4"
       width="6"
       height="6"
       id="rect42" />
    <rect
       x="16"
       y="4"
       width="8"
       height="2"
       id="rect44" />
    <rect
       x="26"
       y="4"
       width="2"
       height="2"
       id="rect46" />
    <rect
       x="32"
       y="4"
       width="6"
       height="2"
       id="rect48" />
    <rect
       x="44"
       y="4"
       width="8"
       height="2"
       id="rect50" />
    <rect
       x="54"
       y="4"
       width="2"
       height="2"
       id="rect52" />
    <rect
       x="62"
       y="4"
       width="4"
       height="2"
       id="rect54" />
    <rect
       x="72"
       y="4"
       width="6"
       height="6"
       id="rect56" />
    <rect
       x="24"
       y="6"
       width="2"
       height="2"
       id="rect58" />
    <rect
       x="36"
       y="6"
       width="2"
       height="2"
       id="rect60" />
    <rect
       x="40"
       y="6"
       width="2"
       height="2"
       id="rect62" />
    <rect
       x="44"
       y="6"
       width="2"
       height="2"
       id="rect64" />
    <rect
       x="48"
       y="6"
       width="2"
       height="2"
       id="rect66" />
    <rect
       x="52"
       y="6"
       width="4"
       height="2"
       id="rect68" />
    <rect
       x="60"
       y="6"
       width="4"
       height="2"
       id="rect70" />
    <rect
       x="18"
       y="8"
       width="6"
       height="2"
       id="rect72" />
    <rect
       x="26"
       y="8"
       width="2"
       height="4"
       id="rect74" />
    <rect
       x="32"
       y="8"
       width="2"
       height="2"
       id="rect76" />
    <rect
       x="44"
       y="8"
       width="6"
       height="2"
       id="rect78" />
    <rect
       x="56"
       y="8"
       width="4"
       height="2"
       id="rect80" />
    <rect
       x="62"
       y="8"
       width="2"
       height="2"
       id="rect82" />
    <rect
       x="16"
       y="10"
       width="2"
       height="4"
       id="rect84" />
    <rect
       x="30"
       y="10"
       width="10"
       height="2"
       id="rect86" />
    <rect
       x="44"
       y="10"
       width="2"
       height="4"
       id="rect88" />
    <rect
       x="48"
       y="10"
       width="2"
       height="4"
       id="rect90" />
    <rect
       x="52"
       y="10"
       width="4"
       height="2"
       id="rect92" />
    <rect
       x="60"
       y="10"
       width="2"
       height="4"
       id="rect94" />
    <rect
       x="0"
       y="12"
       width="14"
       height="2"
       id="rect96" />
    <rect
       x="20"
       y="12"
       width="2"
       height="2"
       id="rect98" />
    <rect
       x="24"
       y="12"
       width="2"
       height="2"
       id="rect100" />
    <rect
       x="28"
       y="12"
       width="2"
       height="2"
       id="rect102" />
    <rect
       x="32"
       y="12"
       width="2"
       height="4"
       id="rect104" />
    <rect
       x="36"
       y="12"
       width="2"
       height="2"
       id="rect106" />
    <rect
       x="40"
       y="12"
       width="2"
       height="2"
       id="rect108" />
    <rect
       x="52"
       y="12"
       width="2"
       height="4"
       id="rect110" />
    <rect
       x="56"
       y="12"
       width="2"
       height="4"
       id="rect112" />
    <rect
       x="64"
       y="12"
       width="2"
       height="2"
       id="rect114" />
    <rect
       x="68"
       y="12"
       width="14"
       height="2"
       id="rect116" />
    <rect
       x="16"
       y="14"
       width="10"
       height="2"
       id="rect118" />
    <rect
       x="36"
       y="14"
       width="6"
       height="2"
       id="rect120" />
    <rect
       x="44"
       y="14"
       width="6"
       height="2"
       id="rect122" />
    <rect
       x="62"
       y="14"
       width="4"
       height="2"
       id="rect124" />
    <rect
       x="4"
       y="16"
       width="6"
       height="2"
       id="rect126" />
    <rect
       x="12"
       y="16"
       width="2"
       height="2"
       id="rect128" />
    <rect
       x="16"
       y="16"
       width="14"
       height="2"
       id="rect130" />
    <rect
       x="34"
       y="16"
       width="2"
       height="2"
       id="rect132" />
    <rect
       x="40"
       y="16"
       width="6"
       height="2"
       id="rect134" />
    <rect
       x="48"
       y="16"
       width="6"
       height="2"
       id="rect136" />
    <rect
       x="58"
       y="16"
       width="2"
       height="2"
       id="rect138" />
    <rect
       x="62"
       y="16"
       width="2"
       height="2"
       id="rect140" />
    <rect
       x="66"
       y="16"
       width="6"
       height="2"
       id="rect142" />
    <rect
       x="76"
       y="16"
       width="6"
       height="2"
       id="rect144" />
    <rect
       x="4"
       y="18"
       width="4"
       height="4"
       id="rect146" />
    <rect
       x="10"
       y="18"
       width="2"
       height="2"
       id="rect148" />
    <rect
       x="18"
       y="18"
       width="4"
       height="2"
       id="rect150" />
    <rect
       x="26"
       y="18"
       width="4"
       height="2"
       id="rect152" />
    <rect
       x="38"
       y="18"
       width="8"
       height="2"
       id="rect154" />
    <rect
       x="56"
       y="18"
       width="4"
       height="2"
       id="rect156" />
    <rect
       x="62"
       y="18"
       width="6"
       height="2"
       id="rect158" />
    <rect
       x="70"
       y="18"
       width="2"
       height="2"
       id="rect160" />
    <rect
       x="76"
       y="18"
       width="2"
       height="2"
       id="rect162" />
    <rect
       x="12"
       y="20"
       width="2"
       height="2"
       id="rect164" />
    <rect
       x="20"
       y="20"
       width="2"
       height="2"
       id="rect166" />
    <rect
       x="34"
       y="20"
       width="4"
       height="2"
       id="rect168" />
    <rect
       x="40"
       y="20"
       width="4"
       height="2"
       id="rect170" />
    <rect
       x="46"
       y="20"
       width="6"
       height="2"
       id="rect172" />
    <rect
       x="54"
       y="20"
       width="2"
       height="2"
       id="rect174" />
    <rect
       x="58"
       y="20"
       width="2"
       height="2"
       id="rect176" />
    <rect
       x="64"
       y="20"
       width="4"
       height="2"
       id="rect178" />
    <rect
       x="78"
       y="20"
       width="2"
       height="2"
       id="rect180" />
    <rect
       x="2"
       y="22"
       width="2"
       height="2"
       id="rect182" />
    <rect
       x="6"
       y="22"
       width="6"
       height="2"
       id="rect184" />
    <rect
       x="14"
       y="22"
       width="2"
       height="2"
       id="rect186" />
    <rect
       x="22"
       y="22"
       width="2"
       height="2"
       id="rect188" />
    <rect
       x="26"
       y="22"
       width="8"
       height="2"
       id="rect190" />
    <rect
       x="42"
       y="22"
       width="4"
       height="2"
       id="rect192" />
    <rect
       x="48"
       y="22"
       width="8"
       height="2"
       id="rect194" />
    <rect
       x="60"
       y="22"
       width="6"
       height="2"
       id="rect196" />
    <rect
       x="70"
       y="22"
       width="2"
       height="4"
       id="rect198" />
    <rect
       x="74"
       y="22"
       width="2"
       height="2"
       id="rect200" />
    <rect
       x="0"
       y="24"
       width="2"
       height="2"
       id="rect202" />
    <rect
       x="8"
       y="24"
       width="2"
       height="2"
       id="rect204" />
    <rect
       x="12"
       y="24"
       width="4"
       height="2"
       id="rect206" />
    <rect
       x="20"
       y="24"
       width="2"
       height="2"
       id="rect208" />
    <rect
       x="24"
       y="24"
       width="2"
       height="2"
       id="rect210" />
    <rect
       x="28"
       y="24"
       width="4"
       height="2"
       id="rect212" />
    <rect
       x="36"
       y="24"
       width="10"
       height="2"
       id="rect214" />
    <rect
       x="48"
       y="24"
       width="2"
       height="2"
       id="rect216" />
    <rect
       x="52"
       y="24"
       width="2"
       height="2"
       id="rect218" />
    <rect
       x="56"
       y="24"
       width="4"
       height="2"
       id="rect220" />
    <rect
       x="62"
       y="24"
       width="2"
       height="2"
       id="rect222" />
    <rect
       x="66"
       y="24"
       width="2"
       height="2"
       id="rect224" />
    <rect
       x="74"
       y="24"
       width="6"
       height="2"
       id="rect226" />
    <rect
       x="2"
       y="26"
       width="2"
       height="2"
       id="rect228" />
    <rect
       x="6"
       y="26"
       width="2"
       height="2"
       id="rect230" />
    <rect
       x="18"
       y="26"
       width="2"
       height="2"
       id="rect232" />
    <rect
       x="22"
       y="26"
       width="4"
       height="2"
       id="rect234" />
    <rect
       x="28"
       y="26"
       width="2"
       height="2"
       id="rect236" />
    <rect
       x="32"
       y="26"
       width="6"
       height="2"
       id="rect238" />
    <rect
       x="44"
       y="26"
       width="4"
       height="2"
       id="rect240" />
    <rect
       x="54"
       y="26"
       width="2"
       height="2"
       id="rect242" />
    <rect
       x="60"
       y="26"
       width="2"
       height="2"
       id="rect244" />
    <rect
       x="64"
       y="26"
       width="2"
       height="2"
       id="rect246" />
    <rect
       x="70"
       y="26"
       width="4"
       height="2"
       id="rect248" />
    <rect
       x="76"
       y="26"
       width="6"
       height="2"
       id="rect250" />
    <rect
       x="2"
       y="28"
       width="4"
       height="2"
       id="rect252" />
    <rect
       x="8"
       y="28"
       width="6"
       height="2"
       id="rect254" />
    <rect
       x="16"
       y="28"
       width="6"
       height="2"
       id="rect256" />
    <rect
       x="26"
       y="28"
       width="2"
       height="2"
       id="rect258" />
    <rect
       x="44"
       y="28"
       width="2"
       height="2"
       id="rect260" />
    <rect
       x="54"
       y="28"
       width="4"
       height="2"
       id="rect262" />
    <rect
       x="60"
       y="28"
       width="4"
       height="2"
       id="rect264" />
    <rect
       x="66"
       y="28"
       width="2"
       height="2"
       id="rect266" />
    <rect
       x="72"
       y="28"
       width="2"
       height="2"
       id="rect268" />
    <rect
       x="78"
       y="28"
       width="2"
       height="2"
       id="rect270" />
    <rect
       x="2"
       y="30"
       width="2"
       height="2"
       id="rect272" />
    <rect
       x="6"
       y="30"
       width="2"
       height="2"
       id="rect274" />
    <rect
       x="10"
       y="30"
       width="2"
       height="2"
       id="rect276" />
    <rect
       x="14"
       y="30"
       width="2"
       height="2"
       id="rect278" />
    <rect
       x="20"
       y="30"
       width="2"
       height="2"
       id="rect280" />
    <rect
       x="26"
       y="30"
       width="4"
       height="2"
       id="rect282" />
    <rect
       x="32"
       y="30"
       width="2"
       height="2"
       id="rect284" />
    <rect
       x="36"
       y="30"
       width="8"
       height="2"
       id="rect286" />
    <rect
       x="46"
       y="30"
       width="6"
       height="2"
       id="rect288" />
    <rect
       x="54"
       y="30"
       width="2"
       height="4"
       id="rect290" />
    <rect
       x="62"
       y="30"
       width="4"
       height="2"
       id="rect292" />
    <rect
       x="68"
       y="30"
       width="8"
       height="2"
       id="rect294" />
    <rect
       x="0"
       y="32"
       width="8"
       height="2"
       id="rect296" />
    <rect
       x="10"
       y="32"
       width="4"
       height="2"
       id="rect298" />
    <rect
       x="18"
       y="32"
       width="2"
       height="2"
       id="rect300" />
    <rect
       x="22"
       y="32"
       width="4"
       height="4"
       id="rect302" />
    <rect
       x="28"
       y="32"
       width="2"
       height="4"
       id="rect304" />
    <rect
       x="34"
       y="32"
       width="4"
       height="2"
       id="rect306" />
    <rect
       x="42"
       y="32"
       width="6"
       height="2"
       id="rect308" />
    <rect
       x="60"
       y="32"
       width="8"
       height="2"
       id="rect310" />
    <rect
       x="70"
       y="32"
       width="2"
       height="2"
       id="rect312" />
    <rect
       x="76"
       y="32"
       width="2"
       height="2"
       id="rect314" />
    <rect
       x="0"
       y="34"
       width="2"
       height="2"
       id="rect316" />
    <rect
       x="4"
       y="34"
       width="2"
       height="2"
       id="rect318" />
    <rect
       x="8"
       y="34"
       width="2"
       height="2"
       id="rect320" />
    <rect
       x="14"
       y="34"
       width="4"
       height="2"
       id="rect322" />
    <rect
       x="32"
       y="34"
       width="2"
       height="2"
       id="rect324" />
    <rect
       x="36"
       y="34"
       width="8"
       height="2"
       id="rect326" />
    <rect
       x="46"
       y="34"
       width="4"
       height="2"
       id="rect328" />
    <rect
       x="52"
       y="34"
       width="8"
       height="2"
       id="rect330" />
    <rect
       x="68"
       y="34"
       width="14"
       height="2"
       id="rect332" />
    <rect
       x="0"
       y="36"
       width="20"
       height="2"
       id="rect334" />
    <rect
       x="24"
       y="36"
       width="2"
       height="2"
       id="rect336" />
    <rect
       x="28"
       y="36"
       width="6"
       height="2"
       id="rect338" />
    <rect
       x="36"
       y="36"
       width="6"
       height="2"
       id="rect340" />
    <rect
       x="44"
       y="36"
       width="2"
       height="2"
       id="rect342" />
    <rect
       x="50"
       y="36"
       width="2"
       height="2"
       id="rect344" />
    <rect
       x="58"
       y="36"
       width="2"
       height="2"
       id="rect346" />
    <rect
       x="64"
       y="36"
       width="6"
       height="2"
       id="rect348" />
    <rect
       x="72"
       y="36"
       width="6"
       height="2"
       id="rect350" />
    <rect
       x="0"
       y="38"
       width="2"
       height="2"
       id="rect352" />
    <rect
       x="4"
       y="38"
       width="2"
       height="2"
       id="rect354" />
    <rect
       x="10"
       y="38"
       width="2"
       height="2"
       id="rect356" />
    <rect
       x="16"
       y="38"
       width="2"
       height="2"
       id="rect358" />
    <rect
       x="24"
       y="38"
       width="6"
       height="2"
       id="rect360" />
    <rect
       x="32"
       y="38"
       width="10"
       height="2"
       id="rect362" />
    <rect
       x="44"
       y="38"
       width="4"
       height="2"
       id="rect364" />
    <rect
       x="56"
       y="38"
       width="6"
       height="2"
       id="rect366" />
    <rect
       x="72"
       y="38"
       width="2"
       height="4"
       id="rect368" />
    <rect
       x="0"
       y="40"
       width="4"
       height="2"
       id="rect370" />
    <rect
       x="8"
       y="40"
       width="2"
       height="2"
       id="rect372" />
    <rect
       x="12"
       y="40"
       width="4"
       height="2"
       id="rect374" />
    <rect
       x="18"
       y="40"
       width="4"
       height="2"
       id="rect376" />
    <rect
       x="26"
       y="40"
       width="8"
       height="2"
       id="rect378" />
    <rect
       x="36"
       y="40"
       width="2"
       height="2"
       id="rect380" />
    <rect
       x="40"
       y="40"
       width="2"
       height="2"
       id="rect382" />
    <rect
       x="48"
       y="40"
       width="6"
       height="2"
       id="rect384" />
    <rect
       x="0"
       y="42"
       width="6"
       height="2"
       id="rect386" />
    <rect
       x="16"
       y="42"
       width="6"
       height="2"
       id="rect388" />
    <rect
       x="26"
       y="42"
       width="2"
       height="6"
       id="rect390" />
    <rect
       x="38"
       y="42"
       width="2"
       height="2"
       id="rect392" />
    <rect
       x="46"
       y="42"
       width="4"
       height="2"
       id="rect394" />
    <rect
       x="52"
       y="42"
       width="2"
       height="2"
       id="rect396" />
    <rect
       x="60"
       y="42"
       width="12"
       height="2"
       id="rect398" />
    <rect
       x="74"
       y="42"
       width="8"
       height="2"
       id="rect400" />
    <rect
       x="2"
       y="44"
       width="4"
       height="2"
       id="rect402" />
    <rect
       x="12"
       y="44"
       width="2"
       height="2"
       id="rect404" />
    <rect
       x="18"
       y="44"
       width="2"
       height="4"
       id="rect406" />
    <rect
       x="22"
       y="44"
       width="2"
       height="2"
       id="rect408" />
    <rect
       x="36"
       y="44"
       width="2"
       height="4"
       id="rect410" />
    <rect
       x="40"
       y="44"
       width="4"
       height="2"
       id="rect412" />
    <rect
       x="46"
       y="44"
       width="2"
       height="4"
       id="rect414" />
    <rect
       x="54"
       y="44"
       width="6"
       height="2"
       id="rect416" />
    <rect
       x="64"
       y="44"
       width="4"
       height="2"
       id="rect418" />
    <rect
       x="76"
       y="44"
       width="2"
       height="2"
       id="rect420" />
    <rect
       x="4"
       y="46"
       width="2"
       height="2"
       id="rect422" />
    <rect
       x="8"
       y="46"
       width="2"
       height="2"
       id="rect424" />
    <rect
       x="14"
       y="46"
       width="2"
       height="2"
       id="rect426" />
    <rect
       x="42"
       y="46"
       width="2"
       height="2"
       id="rect428" />
    <rect
       x="54"
       y="46"
       width="4"
       height="2"
       id="rect430" />
    <rect
       x="60"
       y="46"
       width="2"
       height="2"
       id="rect432" />
    <rect
       x="70"
       y="46"
       width="2"
       height="2"
       id="rect434" />
    <rect
       x="74"
       y="46"
       width="4"
       height="2"
       id="rect436" />
    <rect
       x="80"
       y="46"
       width="2"
       height="4"
       id="rect438" />
    <rect
       x="0"
       y="48"
       width="2"
       height="2"
       id="rect440" />
    <rect
       x="8"
       y="48"
       width="6"
       height="2"
       id="rect442" />
    <rect
       x="20"
       y="48"
       width="10"
       height="2"
       id="rect444" />
    <rect
       x="36"
       y="48"
       width="8"
       height="2"
       id="rect446" />
    <rect
       x="46"
       y="48"
       width="4"
       height="2"
       id="rect448" />
    <rect
       x="58"
       y="48"
       width="2"
       height="2"
       id="rect450" />
    <rect
       x="66"
       y="48"
       width="2"
       height="2"
       id="rect452" />
    <rect
       x="70"
       y="48"
       width="4"
       height="2"
       id="rect454" />
    <rect
       x="4"
       y="50"
       width="2"
       height="4"
       id="rect456" />
    <rect
       x="8"
       y="50"
       width="2"
       height="2"
       id="rect458" />
    <rect
       x="14"
       y="50"
       width="2"
       height="2"
       id="rect460" />
    <rect
       x="18"
       y="50"
       width="4"
       height="2"
       id="rect462" />
    <rect
       x="24"
       y="50"
       width="6"
       height="2"
       id="rect464" />
    <rect
       x="36"
       y="50"
       width="4"
       height="2"
       id="rect466" />
    <rect
       x="46"
       y="50"
       width="6"
       height="2"
       id="rect468" />
    <rect
       x="56"
       y="50"
       width="2"
       height="2"
       id="rect470" />
    <rect
       x="60"
       y="50"
       width="4"
       height="2"
       id="rect472" />
    <rect
       x="72"
       y="50"
       width="4"
       height="2"
       id="rect474" />
    <rect
       x="78"
       y="50"
       width="2"
       height="2"
       id="rect476" />
    <rect
       x="10"
       y="52"
       width="12"
       height="2"
       id="rect478" />
    <rect
       x="30"
       y="52"
       width="20"
       height="2"
       id="rect480" />
    <rect
       x="54"
       y="52"
       width="2"
       height="2"
       id="rect482" />
    <rect
       x="58"
       y="52"
       width="4"
       height="2"
       id="rect484" />
    <rect
       x="64"
       y="52"
       width="2"
       height="2"
       id="rect486" />
    <rect
       x="68"
       y="52"
       width="6"
       height="2"
       id="rect488" />
    <rect
       x="80"
       y="52"
       width="2"
       height="2"
       id="rect490" />
    <rect
       x="10"
       y="54"
       width="2"
       height="2"
       id="rect492" />
    <rect
       x="16"
       y="54"
       width="4"
       height="2"
       id="rect494" />
    <rect
       x="24"
       y="54"
       width="2"
       height="2"
       id="rect496" />
    <rect
       x="28"
       y="54"
       width="4"
       height="2"
       id="rect498" />
    <rect
       x="34"
       y="54"
       width="2"
       height="2"
       id="rect500" />
    <rect
       x="38"
       y="54"
       width="6"
       height="2"
       id="rect502" />
    <rect
       x="46"
       y="54"
       width="2"
       height="2"
       id="rect504" />
    <rect
       x="50"
       y="54"
       width="2"
       height="2"
       id="rect506" />
    <rect
       x="56"
       y="54"
       width="2"
       height="2"
       id="rect508" />
    <rect
       x="62"
       y="54"
       width="8"
       height="2"
       id="rect510" />
    <rect
       x="72"
       y="54"
       width="4"
       height="2"
       id="rect512" />
    <rect
       x="78"
       y="54"
       width="4"
       height="2"
       id="rect514" />
    <rect
       x="0"
       y="56"
       width="2"
       height="10"
       id="rect516" />
    <rect
       x="4"
       y="56"
       width="4"
       height="2"
       id="rect518" />
    <rect
       x="12"
       y="56"
       width="2"
       height="2"
       id="rect520" />
    <rect
       x="16"
       y="56"
       width="2"
       height="2"
       id="rect522" />
    <rect
       x="22"
       y="56"
       width="2"
       height="2"
       id="rect524" />
    <rect
       x="40"
       y="56"
       width="2"
       height="2"
       id="rect526" />
    <rect
       x="44"
       y="56"
       width="2"
       height="6"
       id="rect528" />
    <rect
       x="52"
       y="56"
       width="2"
       height="2"
       id="rect530" />
    <rect
       x="58"
       y="56"
       width="2"
       height="2"
       id="rect532" />
    <rect
       x="62"
       y="56"
       width="4"
       height="2"
       id="rect534" />
    <rect
       x="68"
       y="56"
       width="2"
       height="2"
       id="rect536" />
    <rect
       x="74"
       y="56"
       width="4"
       height="2"
       id="rect538" />
    <rect
       x="80"
       y="56"
       width="2"
       height="4"
       id="rect540" />
    <rect
       x="6"
       y="58"
       width="4"
       height="2"
       id="rect542" />
    <rect
       x="14"
       y="58"
       width="2"
       height="2"
       id="rect544" />
    <rect
       x="28"
       y="58"
       width="2"
       height="2"
       id="rect546" />
    <rect
       x="32"
       y="58"
       width="2"
       height="2"
       id="rect548" />
    <rect
       x="36"
       y="58"
       width="6"
       height="2"
       id="rect550" />
    <rect
       x="48"
       y="58"
       width="4"
       height="4"
       id="rect552" />
    <rect
       x="54"
       y="58"
       width="8"
       height="2"
       id="rect554" />
    <rect
       x="66"
       y="58"
       width="2"
       height="2"
       id="rect556" />
    <rect
       x="70"
       y="58"
       width="4"
       height="2"
       id="rect558" />
    <rect
       x="4"
       y="60"
       width="2"
       height="2"
       id="rect560" />
    <rect
       x="8"
       y="60"
       width="6"
       height="2"
       id="rect562" />
    <rect
       x="16"
       y="60"
       width="2"
       height="2"
       id="rect564" />
    <rect
       x="20"
       y="60"
       width="2"
       height="2"
       id="rect566" />
    <rect
       x="34"
       y="60"
       width="2"
       height="2"
       id="rect568" />
    <rect
       x="58"
       y="60"
       width="2"
       height="2"
       id="rect570" />
    <rect
       x="64"
       y="60"
       width="6"
       height="2"
       id="rect572" />
    <rect
       x="74"
       y="60"
       width="2"
       height="4"
       id="rect574" />
    <rect
       x="4"
       y="62"
       width="4"
       height="2"
       id="rect576" />
    <rect
       x="10"
       y="62"
       width="2"
       height="2"
       id="rect578" />
    <rect
       x="14"
       y="62"
       width="2"
       height="2"
       id="rect580" />
    <rect
       x="18"
       y="62"
       width="14"
       height="2"
       id="rect582" />
    <rect
       x="36"
       y="62"
       width="4"
       height="2"
       id="rect584" />
    <rect
       x="42"
       y="62"
       width="4"
       height="2"
       id="rect586" />
    <rect
       x="48"
       y="62"
       width="2"
       height="4"
       id="rect588" />
    <rect
       x="56"
       y="62"
       width="6"
       height="2"
       id="rect590" />
    <rect
       x="66"
       y="62"
       width="6"
       height="2"
       id="rect592" />
    <rect
       x="6"
       y="64"
       width="4"
       height="2"
       id="rect594" />
    <rect
       x="12"
       y="64"
       width="8"
       height="2"
       id="rect596" />
    <rect
       x="22"
       y="64"
       width="6"
       height="2"
       id="rect598" />
    <rect
       x="34"
       y="64"
       width="2"
       height="2"
       id="rect600" />
    <rect
       x="40"
       y="64"
       width="6"
       height="2"
       id="rect602" />
    <rect
       x="52"
       y="64"
       width="2"
       height="2"
       id="rect604" />
    <rect
       x="56"
       y="64"
       width="2"
       height="2"
       id="rect606" />
    <rect
       x="64"
       y="64"
       width="10"
       height="2"
       id="rect608" />
    <rect
       x="76"
       y="64"
       width="4"
       height="2"
       id="rect610" />
    <rect
       x="16"
       y="66"
       width="2"
       height="2"
       id="rect612" />
    <rect
       x="24"
       y="66"
       width="4"
       height="2"
       id="rect614" />
    <rect
       x="36"
       y="66"
       width="4"
       height="2"
       id="rect616" />
    <rect
       x="42"
       y="66"
       width="6"
       height="2"
       id="rect618" />
    <rect
       x="50"
       y="66"
       width="6"
       height="2"
       id="rect620" />
    <rect
       x="60"
       y="66"
       width="2"
       height="4"
       id="rect622" />
    <rect
       x="64"
       y="66"
       width="2"
       height="4"
       id="rect624" />
    <rect
       x="72"
       y="66"
       width="10"
       height="2"
       id="rect626" />
    <rect
       x="0"
       y="68"
       width="14"
       height="2"
       id="rect628" />
    <rect
       x="20"
       y="68"
       width="8"
       height="2"
       id="rect630" />
    <rect
       x="34"
       y="68"
       width="2"
       height="2"
       id="rect632" />
    <rect
       x="40"
       y="68"
       width="6"
       height="2"
       id="rect634" />
    <rect
       x="50"
       y="68"
       width="2"
       height="2"
       id="rect636" />
    <rect
       x="54"
       y="68"
       width="4"
       height="2"
       id="rect638" />
    <rect
       x="68"
       y="68"
       width="2"
       height="2"
       id="rect640" />
    <rect
       x="72"
       y="68"
       width="2"
       height="2"
       id="rect642" />
    <rect
       x="76"
       y="68"
       width="2"
       height="2"
       id="rect644" />
    <rect
       x="0"
       y="70"
       width="2"
       height="10"
       id="rect646" />
    <rect
       x="12"
       y="70"
       width="2"
       height="10"
       id="rect648" />
    <rect
       x="18"
       y="70"
       width="4"
       height="2"
       id="rect650" />
    <rect
       x="24"
       y="70"
       width="4"
       height="2"
       id="rect652" />
    <rect
       x="30"
       y="70"
       width="8"
       height="2"
       id="rect654" />
    <rect
       x="40"
       y="70"
       width="2"
       height="2"
       id="rect656" />
    <rect
       x="46"
       y="70"
       width="4"
       height="2"
       id="rect658" />
    <rect
       x="52"
       y="70"
       width="4"
       height="4"
       id="rect660" />
    <rect
       x="62"
       y="70"
       width="4"
       height="2"
       id="rect662" />
    <rect
       x="72"
       y="70"
       width="6"
       height="2"
       id="rect664" />
    <rect
       x="80"
       y="70"
       width="2"
       height="4"
       id="rect666" />
    <rect
       x="4"
       y="72"
       width="6"
       height="6"
       id="rect668" />
    <rect
       x="16"
       y="72"
       width="8"
       height="2"
       id="rect670" />
    <rect
       x="28"
       y="72"
       width="4"
       height="2"
       id="rect672" />
    <rect
       x="34"
       y="72"
       width="2"
       height="2"
       id="rect674" />
    <rect
       x="38"
       y="72"
       width="4"
       height="2"
       id="rect676" />
    <rect
       x="44"
       y="72"
       width="6"
       height="2"
       id="rect678" />
    <rect
       x="60"
       y="72"
       width="14"
       height="2"
       id="rect680" />
    <rect
       x="16"
       y="74"
       width="2"
       height="2"
       id="rect682" />
    <rect
       x="28"
       y="74"
       width="2"
       height="4"
       id="rect684" />
    <rect
       x="36"
       y="74"
       width="4"
       height="2"
       id="rect686" />
    <rect
       x="42"
       y="74"
       width="2"
       height="4"
       id="rect688" />
    <rect
       x="50"
       y="74"
       width="2"
       height="2"
       id="rect690" />
    <rect
       x="56"
       y="74"
       width="2"
       height="2"
       id="rect692" />
    <rect
       x="64"
       y="74"
       width="4"
       height="2"
       id="rect694" />
    <rect
       x="70"
       y="74"
       width="2"
       height="2"
       id="rect696" />
    <rect
       x="16"
       y="76"
       width="6"
       height="2"
       id="rect698" />
    <rect
       x="24"
       y="76"
       width="2"
       height="2"
       id="rect700" />
    <rect
       x="32"
       y="76"
       width="2"
       height="2"
       id="rect702" />
    <rect
       x="48"
       y="76"
       width="4"
       height="2"
       id="rect704" />
    <rect
       x="54"
       y="76"
       width="4"
       height="2"
       id="rect706" />
    <rect
       x="60"
       y="76"
       width="16"
       height="2"
       id="rect708" />
    <rect
       x="78"
       y="76"
       width="2"
       height="4"
       id="rect710" />
    <rect
       x="26"
       y="78"
       width="2"
       height="2"
       id="rect712" />
    <rect
       x="36"
       y="78"
       width="2"
       height="2"
       id="rect714" />
    <rect
       x="40"
       y="78"
       width="2"
       height="2"
       id="rect716" />
    <rect
       x="44"
       y="78"
       width="2"
       height="2"
       id="rect718" />
    <rect
       x="52"
       y="78"
       width="2"
       height="2"
       id="rect720" />
    <rect
       x="56"
       y="78"
       width="2"
       height="2"
       id="rect722" />
    <rect
       x="64"
       y="78"
       width="2"
       height="2"
       id="rect724" />
    <rect
       x="68"
       y="78"
       width="2"
       height="2"
       id="rect726" />
    <rect
       x="72"
       y="78"
       width="2"
       height="2"
       id="rect728" />
    <rect
       x="0"
       y="80"
       width="14"
       height="2"
       id="rect730" />
    <rect
       x="20"
       y="80"
       width="8"
       height="2"
       id="rect732" />
    <rect
       x="30"
       y="80"
       width="2"
       height="2"
       id="rect734" />
    <rect
       x="34"
       y="80"
       width="10"
       height="2"
       id="rect736" />
    <rect
       x="46"
       y="80"
       width="2"
       height="2"
       id="rect738" />
    <rect
       x="58"
       y="80"
       width="2"
       height="2"
       id="rect740" />
    <rect
       x="62"
       y="80"
       width="2"
       height="2"
       id="rect742" />
    <rect
       x="70"
       y="80"
       width="6"
       height="2"
       id="rect744" />
  </g>
</svg>
